{"title":"Knight And Day 2010 R5 LiNE H264","uid":5837905,"size":1875112715,"categoryP":"video","categoryS":"movies","magnet":"?xt=urn:btih:b822af40500d264f92422cfd49a57710d05389c9&amp;dn=Knight+And+Day+2010+R5+LiNE+H264&amp;tr=udp%3A%2F%2Ftracker.openbittorrent.com%3A80&amp;tr=udp%3A%2F%2Fopen.demonii.com%3A1337&amp;tr=udp%3A%2F%2Ftracker.coppersurfer.tk%3A6969&amp;tr=udp%3A%2F%2Fexodus.desync.com%3A6969","seeders":0,"leechers":0,"uploader":"xenl","files":1,"time":1284804262,"description":"File Name\n\nKnight And Day 2010 R5 LiNE H264.mp4\n\nFile Size\nFormat : MPEG-4\nFormat profile : Base Media\nCodec ID : isom\nFile size : 1.75 GiB\nDuration : 1h 45mn\nOverall bit rate : 2 380 Kbps\n\nVideo\nID : 1\nFormat : AVC\nFormat/Info : Advanced Video Codec\nFormat profile : &lt;a class=&quot;__cf_email__&quot; href=&quot;/cdn-cgi/l/email-protection&quot; data-cfemail=&quot;1e567779765e522a302f&quot;&gt;[email&amp;#160;protected]&lt;/a&gt;&lt;script data-cfhash='f9e31' type=&quot;text/javascript&quot;&gt;\n/* &lt;![CDATA[ */!function(){try{var t=&quot;currentScript&quot;in document?document.currentScript:function(){for(var t=document.getElementsByTagName(&quot;script&quot;),e=t.length;e--;)if(t[e].getAttribute(&quot;data-cfhash&quot;))return t[e]}();if(t&amp;&amp;t.previousSibling){var e,r,n,i,c=t.previousSibling,a=c.getAttribute(&quot;data-cfemail&quot;);if(a){for(e=&quot;&quot;,r=parseInt(a.substr(0,2),16),n=2;a.length-n;n+=2)i=parseInt(a.substr(n,2),16)^r,e+=String.fromCharCode(i);e=document.createTextNode(e),c.parentNode.replaceChild(e,c)}t.parentNode.removeChild(t);}}catch(u){}}()/* ]]&gt; */&lt;/script&gt;\nFormat settings, CABAC : Yes\nFormat settings, ReFrames : 3 frames\nCodec ID : avc1\nCodec ID/Info : Advanced Video Coding\nDuration : 1h 45mn\nBit rate mode : Variable\nBit rate : 2 250 Kbps\nMaximum bit rate : 8 675 Kbps\nWidth : 720 pixels\nHeight : 288 pixels\nDisplay aspect ratio : 2.500\nFrame rate mode : Constant\nFrame rate : 25.000 fps\nResolution : 24 bits\nColorimetry : 4:2:0\nScan type : Progressive\nBits/(Pixel*Frame) : 0.434\nStream size : 1.65 GiB (94%)\n\nAudio\nID : 2\nFormat : AAC\nFormat/Info : Advanced Audio Codec\nFormat version : Version 4\nFormat profile : LC\nFormat settings, SBR : No\nCodec ID : 40\nDuration : 1h 45mn\nBit rate mode : Variable\nBit rate : 128 Kbps\nMaximum bit rate : 136 Kbps\nChannel(s) : 2 channels\nChannel positions : L R\nSampling rate : 48.0 KHz\nResolution : 16 bits\nStream size : 96.2 MiB (5%)\n\nEnglish SRT :\nLanguage : English\n\nSource : R5 LiNE DVDR-TDM\n\nRelease Date: 23 June 2010 (USA)\n\nGenre: Action | Adventure | Comedy | Thriller\n\nPlot: June Havens finds her everyday life tangled with that of a secret agent who has realized he isn't supposed to survive his latest mission...\n\nCast:\nTom Cruise ... Roy Miller\nCameron Diaz ... June Havens\nPeter Sarsgaard ... Fitzgerald\nJordi MollÃƒÂ  ... Antonio\nViola Davis ... Director George\nPaul Dano ... Simon Feck\nFalk Hentschel ... Bernhard\nMarc Blucas ... Rodney\nLennie Loftin ... Braces\nMaggie Grace ... April Havens\nRich Manley ... Danny\nDale Dye ... Frank Jenkins\nCelia Weston ... Molly\nGal Gadot ... Naomi\nJack O'Connell ... Wilmer (as Jack A. O'Connell)\n\nPoster/Screenshots","torrent":{"xt":"urn:btih:b822af40500d264f92422cfd49a57710d05389c9","amp;dn":"Knight+And+Day+2010+R5+LiNE+H264","amp;tr":["udp%3A%2F%2Ftracker.openbittorrent.com%3A80","udp%3A%2F%2Fopen.demonii.com%3A1337","udp%3A%2F%2Ftracker.coppersurfer.tk%3A6969","udp%3A%2F%2Fexodus.desync.com%3A6969"],"infoHash":"b822af40500d264f92422cfd49a57710d05389c9","infoHashBuffer":{"type":"Buffer","data":[184,34,175,64,80,13,38,79,146,66,44,253,73,165,119,16,208,83,137,201]},"announce":[],"urlList":[]}}